<?xml version="1.0" encoding="UTF-8"?>
<svg class="css-1j8o68f" width="435.59" height="435.59" viewBox="0 0 312.5 312.5" xmlns="http://www.w3.org/2000/svg">
<defs>
<linearGradient id="a">
<stop stop-color="#8f5e25" offset="0"/>
<stop stop-color="#fbf4a1" offset=".5"/>
<stop stop-color="#8f5e25" offset="1"/>
</linearGradient>
</defs>
<g transform="matrix(6.25 0 0 6.25 .3125 0)" fill="url(#a)" featurekey="rootContainer">
<path d="m24.95 0a25 25 0 1 0 25 25 25 25 0 0 0-25-25zm0 46.91a22 22 0 1 1 22-22 22 22 0 0 1-22 21.99z" xmlns="http://www.w3.org/2000/svg"/>
<path d="m24.95 3.65a21.3 21.3 0 1 0 21.3 21.3 21.33 21.33 0 0 0-21.3-21.3z" xmlns="http://www.w3.org/2000/svg"/>
</g>
<g transform="matrix(.93013 0 0 .93013 109.92 62.21)" featurekey="symbolFeature-0">
<g display="none" xmlns="http://www.w3.org/2000/svg">
<path d="m36.157 12h11.843v-2.338c-2-0.755-3.108-2.342-3.108-5.449 0-0.724 0.177-1.213 0.626-1.213h8.547c0.555 0 0.913 0.498 0.913 1.213 0 3.204-1.978 4.75-2.978 5.475v2.312h11.581l-0.025 0.135 0.025 1.271c-0.44 0.783-1.538 1.357-3.24 1.429-0.081 0.01-0.156 0.165-0.214 0.165h-8.385s-0.085 0.392-0.156 1.305c-0.07 0.914-0.144 2.155-0.128 3.721 9e-3 0.783 0.019 0.734 0.072 1.632 0.046 0.897 0.14 1.828 0.284 2.807 0.269 1.958 0.606 3.175 0.573 5.264-8e-3 1.044-0.084 2.087-0.233 3.115-0.137 1.028-0.327 2.905-0.446 3.884-0.123 0.979-0.202 1.933-0.209 2.83-0.013 0.898 0.086 2.626 0.228 3.409 0.142 0.784 0.292 1.534 0.39 2.171 0.078 0.54 0.124 1.062 0.16 1.489 0.328 0.211 0.607 0.45 0.857 0.704l3.25-2.927 2.066 2.293-3.991 3.597c0.016 0.178 0.027 0.358 0.027 0.541 0 0.479-0.076 0.875-0.229 1.206 0.432 0.226 0.743 0.676 0.743 1.199v0.729c0 0.575 0 1.065-1 1.265v7.105c1 0.198 1 0.688 1 1.266v0.729c0 0.49-0.021 0.917-0.66 1.155 0.826 0.06 1.66 0.898 1.66 1.765v0.378c0 0.899-0.85 2.368-1.704 2.368h0.684c0.954 0 1.728 0.205 1.728 1.303 0 0.594-0.231 0.834-0.592 1.128 2.644 1.718 4.477 4.38 4.816 7.575 0.038 0.355 0.058 0.664 0.058 1.03 0 5.858-3.814 8.763-11.12 8.763-7.305 0-11.119-2.944-11.119-8.803 0-1.098 0.175-2.164 0.499-3.16 0.745-2.282 2.28-4.23 4.295-5.563-0.397-0.291-0.656-0.34-0.656-0.969 0-1.098 0.773-1.304 1.727-1.304h0.684c-0.855 0-1.3-1.469-1.3-2.368v-0.378c0-0.899 0.445-2.254 1.299-2.254h0.026c-0.61 0-0.325-0.183-0.325-0.666v-0.729c0-0.577 0-1.067 1-1.266v-7.105c-1-0.199-1-0.689-1-1.265v-0.729c0-0.504 0.085-0.939 0.493-1.176-0.161-0.335-0.35-0.738-0.35-1.231 0-1.743 0.576-3.426 2.24-4.401 0.034-0.41 0.052-0.899 0.12-1.363 0.098-0.637 0.237-1.354 0.379-2.138 0.141-0.783 0.232-2.495 0.22-3.393-6e-3 -0.897-0.087-1.844-0.21-2.823-0.119-0.979-0.312-2.854-0.449-3.882-0.15-1.028-0.227-2.072-0.233-3.116-0.034-2.088 0.303-3.313 0.574-5.271 0.143-0.979 0.236-1.925 0.283-2.823 0.054-0.897 0.063-0.882 0.073-1.665 0.016-1.566-0.058-2.741-0.129-3.655-0.073-0.911-0.158-1.303-0.158-1.303h-8.24c-0.057 0-0.134-0.137-0.215-0.146-1.7-0.072-2.799-0.562-3.24-1.345l0.026-1.341-0.027-0.168z" display="inline"/>
<path d="m49.869 45.487" display="inline" fill="none" stroke="#000" stroke-miterlimit="10"/>
<g display="inline">
<path d="m55.051 46.545s0.329-1.036 1.526-2.155c1.234-1.066 3.126-2.603 5.018-4.917 0.932-1.155 1.861-2.506 2.519-4.049 0.634-1.541 0.951-3.265 0.491-4.949-0.07-0.208-0.121-0.422-0.202-0.631l-0.138-0.311-0.067-0.157-0.033-0.079-0.018-0.04c0.012 0.019-0.047-0.096 0.021 0.03-0.138-0.248-0.277-0.499-0.417-0.75-0.126-0.169-0.224-0.339-0.362-0.522-0.576-0.762-1.327-1.435-2.229-1.983-1.801-1.112-4.198-1.655-6.732-1.721-2.545-0.068-5.262 0.352-7.923 1.217-1.331 0.434-2.654 0.977-3.917 1.659-0.635 0.336-1.25 0.712-1.848 1.116-0.272 0.18-0.62 0.44-0.928 0.657l-0.883 0.676c-2.367 1.875-4.558 4.119-6.272 6.757-1.716 2.627-2.94 5.66-3.357 8.892-0.462 3.228-0.061 6.618 0.987 9.853 0.124 0.406 0.262 0.81 0.417 1.21l0.222 0.603 0.252 0.568c0.176 0.414 0.358 0.817 0.559 1.147 0.194 0.353 0.376 0.709 0.624 1.051 0.907 1.396 2.061 2.634 3.403 3.654 2.682 2.072 6.093 3.147 9.561 3.646 1.749 0.206 3.522 0.331 5.308 0.274 1.787-0.021 3.467-0.242 5.063-0.812 1.582-0.587 3.028-1.486 4.252-2.684 1.245-1.175 2.282-2.609 3.277-4.098 0.993-1.493 1.944-3.064 3.039-4.582 1.1-1.514 2.378-2.98 3.972-4.121 1.604-1.128 3.438-1.891 5.379-2.182 0.824-0.136 1.928-0.221 2.86-0.149 0.963 0.062 1.925 0.229 2.84 0.534 1.847 0.574 3.486 1.632 4.846 2.906 1.363 1.279 2.435 2.795 3.295 4.377 3.334 6.413 3.393 13.91 1.016 19.967-2.343 6.141-6.658 10.859-11.26 14.085-4.644 3.227-9.562 5.067-13.988 6.093-4.441 1.032-8.415 1.326-11.667 1.369-3.257 0.042-5.808-0.164-7.541-0.322-1.729-0.197-2.65-0.302-2.65-0.302l0.278-2.047s0.897 0.107 2.578 0.309c1.684 0.162 4.16 0.377 7.313 0.353 3.148-0.022 6.985-0.287 11.251-1.254 4.252-0.96 8.949-2.696 13.362-5.726 4.366-3.024 8.422-7.501 10.604-13.19 1.13-2.843 1.648-5.949 1.527-9.143-0.129-3.176-0.881-6.432-2.421-9.333-1.527-2.869-3.944-5.44-7.089-6.422-0.773-0.26-1.584-0.4-2.403-0.455-0.85-0.054-1.569-0.012-2.499 0.132-1.622 0.242-3.221 0.897-4.586 1.859-2.779 1.965-4.537 5.179-6.571 8.23-1.027 1.529-2.133 3.071-3.531 4.393-1.371 1.341-3.06 2.399-4.877 3.065-1.822 0.655-3.779 0.896-5.632 0.913-1.86 0.057-3.726-0.073-5.578-0.295-3.677-0.531-7.383-1.684-10.381-3.995-1.496-1.138-2.793-2.531-3.806-4.095-1.041-1.593-1.715-3.273-2.269-5.002-1.095-3.438-1.552-7.08-1.127-10.6 0.399-3.523 1.685-6.857 3.495-9.723 1.809-2.88 4.117-5.313 6.602-7.346 2.45-2.062 5.306-3.642 8.179-4.599 2.882-0.98 5.817-1.499 8.668-1.491 2.839 0.018 5.65 0.543 8.004 1.908 1.171 0.674 2.209 1.551 3.018 2.574 0.205 0.258 0.394 0.549 0.585 0.822 0.146 0.254 0.293 0.506 0.438 0.757 0.137 0.302 0.272 0.601 0.407 0.898 0.117 0.291 0.199 0.594 0.299 0.887 0.691 2.419 0.233 4.821-0.529 6.718-0.791 1.915-1.848 3.462-2.873 4.769-2.09 2.59-4.058 4.278-5.418 5.391-1.37 1.099-2.18 1.628-2.18 1.628l-1.153-1.715z"/>
</g>
<path d="m40.415 94.392c-0.349-0.049-0.632-0.205-0.829-0.407l-0.313-0.039c-0.243 0.139-0.556 0.209-0.903 0.161-0.334-0.048-0.61-0.19-0.806-0.38l-0.366-0.047c-0.239 0.126-0.542 0.187-0.873 0.141-0.317-0.044-0.581-0.177-0.774-0.352l-0.442-0.057c-0.233 0.112-0.519 0.166-0.83 0.122-0.298-0.042-0.549-0.165-0.745-0.323l-13.648-1.743c-0.859-0.119-3.069-0.086-3.83 0.469 0 0.127-7e-3 0.256-0.024 0.386-0.021 0.143-0.051 0.28-0.089 0.413 0.583 0.746 2.736 1.39 3.599 1.511l13.561 2.061c0.23-0.099 0.506-0.148 0.803-0.106 0.312 0.044 0.572 0.173 0.765 0.344l0.442 0.067c0.233-0.115 0.522-0.169 0.839-0.126 0.331 0.047 0.606 0.188 0.801 0.374l0.366 0.057c0.239-0.129 0.544-0.191 0.878-0.144 0.347 0.048 0.63 0.201 0.826 0.401l0.311 0.048c0.244-0.14 0.56-0.213 0.909-0.164 0.368 0.051 0.671 0.218 0.871 0.436l1.044 0.158c1.024 0.142 1.957-0.481 2.084-1.394s-0.598-1.769-1.623-1.911l-1.047-0.134c-0.253 0.152-0.589 0.229-0.957 0.178z" display="inline"/>
</g>
<g xmlns="http://www.w3.org/2000/svg">
<path d="m85.422 56.479c-0.86-1.582-1.932-3.098-3.295-4.377-1.359-1.274-2.999-2.333-4.846-2.906-0.915-0.304-1.877-0.471-2.84-0.534-0.933-0.072-2.036 0.013-2.86 0.149-1.941 0.292-3.775 1.054-5.379 2.182-1.594 1.141-2.872 2.607-3.972 4.121-1.095 1.518-2.046 3.089-3.039 4.582-0.995 1.488-2.032 2.923-3.277 4.098-1.206 1.181-2.63 2.068-4.187 2.655-0.305-0.521-0.862-0.921-1.42-0.961 0.639-0.238 0.66-0.665 0.66-1.155v-0.729c0-0.577 0-1.067-1-1.266v-7.105c1-0.199 1-0.689 1-1.265v-0.728c0-0.523-0.311-0.974-0.744-1.201 0.153-0.331 0.229-0.727 0.229-1.206 0-0.183-0.012-0.362-0.027-0.541l3.992-3.597-0.062-0.07c1.359-1.113 3.324-2.799 5.411-5.385 1.025-1.307 2.082-2.854 2.873-4.769 0.763-1.896 1.221-4.299 0.529-6.718-0.1-0.293-0.182-0.596-0.299-0.887-0.135-0.297-0.271-0.596-0.407-0.898-0.146-0.251-0.292-0.503-0.438-0.757-0.191-0.273-0.38-0.563-0.585-0.822-0.809-1.023-1.847-1.9-3.018-2.574-2.354-1.364-5.165-1.89-8.004-1.908-0.954-3e-3 -1.919 0.075-2.887 0.188-0.01-0.145-0.025-0.295-0.033-0.438-0.054-0.897-0.063-0.849-0.072-1.632-0.016-1.566 0.058-2.807 0.128-3.721 0.071-0.912 0.155-1.304 0.155-1.304h8.386c0.058 0 0.133-0.155 0.214-0.165 1.702-0.072 2.8-0.646 3.24-1.429l-0.025-1.271 0.026-0.135h-11.582v-2.312c1-0.725 2.978-2.271 2.978-5.475 0-0.715-0.359-1.213-0.913-1.213h-8.547c-0.449 0-0.626 0.489-0.626 1.213 0 3.107 1.108 4.693 3.108 5.449v2.338h-11.842l0.026 0.167-0.026 1.341c0.441 0.784 1.541 1.273 3.24 1.345 0.081 0.01 0.157 0.147 0.215 0.147h8.24s0.086 0.392 0.156 1.305c0.072 0.914 0.146 2.089 0.129 3.655-9e-3 0.783-0.019 0.768-0.073 1.665-0.019 0.364-0.051 0.742-0.085 1.121-0.735 0.188-1.469 0.405-2.199 0.654-2.873 0.957-5.729 2.537-8.179 4.599-2.485 2.033-4.792 4.466-6.602 7.346-1.81 2.866-3.096 6.2-3.495 9.723-0.425 3.52 0.032 7.162 1.127 10.6 0.554 1.729 1.228 3.409 2.269 5.002 1.013 1.563 2.31 2.957 3.806 4.095 2.74 2.112 6.072 3.25 9.432 3.837 0.192 0.717 0.579 1.398 1.16 1.398h-0.684c-0.954 0-1.727 0.206-1.727 1.304 0 0.629 0.259 0.678 0.656 0.969-2.015 1.333-3.55 3.281-4.295 5.563-0.324 0.996-0.499 2.062-0.499 3.16 0 5.858 3.814 8.803 11.119 8.803 7.306 0 11.121-2.904 11.121-8.763 0-0.366-0.02-0.675-0.058-1.03-0.34-3.195-2.173-5.857-4.816-7.575 0.36-0.294 0.592-0.534 0.592-1.128 0-1.098-0.773-1.303-1.728-1.303h-0.684c0.673 0 1.336-0.909 1.591-1.735 0.137-0.044 0.276-0.075 0.412-0.124 1.817-0.666 3.506-1.725 4.877-3.065 1.398-1.321 2.504-2.863 3.531-4.393 2.034-3.052 3.792-6.266 6.571-8.23 1.365-0.962 2.964-1.617 4.586-1.859 0.93-0.144 1.649-0.186 2.499-0.132 0.819 0.054 1.63 0.194 2.403 0.455 3.145 0.982 5.562 3.553 7.089 6.422 1.54 2.901 2.292 6.157 2.421 9.333 0.121 3.193-0.397 6.3-1.527 9.143-2.182 5.689-6.237 10.166-10.604 13.19-4.413 3.029-9.11 4.766-13.362 5.726-4.266 0.967-8.103 1.231-11.251 1.254-3.153 0.024-5.629-0.19-7.313-0.353-1.187-0.143-1.974-0.236-2.339-0.28-0.261-0.515-0.795-0.911-1.461-1.004l-1.047-0.134c-0.252 0.153-0.588 0.23-0.957 0.179-0.349-0.049-0.632-0.205-0.829-0.407l-0.313-0.039c-0.243 0.139-0.556 0.209-0.903 0.161-0.334-0.048-0.61-0.19-0.806-0.38l-0.366-0.047c-0.239 0.126-0.542 0.187-0.873 0.141-0.317-0.044-0.581-0.177-0.774-0.352l-0.442-0.057c-0.233 0.112-0.519 0.166-0.83 0.122-0.298-0.042-0.549-0.165-0.745-0.323l-13.648-1.743c-0.859-0.119-3.069-0.086-3.83 0.469 0 0.127-7e-3 0.256-0.024 0.386-0.021 0.143-0.051 0.28-0.089 0.413 0.583 0.746 2.736 1.39 3.599 1.511l13.561 2.061c0.23-0.099 0.506-0.148 0.803-0.106 0.312 0.044 0.572 0.173 0.765 0.344l0.442 0.067c0.233-0.115 0.522-0.169 0.839-0.126 0.331 0.047 0.606 0.188 0.801 0.374l0.366 0.057c0.239-0.129 0.544-0.191 0.878-0.144 0.347 0.048 0.63 0.201 0.826 0.401l0.311 0.048c0.244-0.14 0.56-0.213 0.909-0.164 0.368 0.051 0.671 0.218 0.871 0.436l1.044 0.158c0.529 0.073 1.032-0.061 1.414-0.33l-6e-3 0.048s0.922 0.104 2.65 0.302c1.733 0.158 4.283 0.364 7.541 0.322 3.252-0.043 7.226-0.337 11.667-1.369 4.426-1.025 9.345-2.866 13.988-6.093 4.602-3.226 8.917-7.944 11.26-14.085 2.375-6.059 2.317-13.556-1.017-19.97zm-35.028-32.169c2.535 0.065 4.932 0.608 6.733 1.721 0.902 0.548 1.653 1.221 2.229 1.983 0.139 0.184 0.236 0.354 0.362 0.522 0.129 0.233 0.259 0.465 0.386 0.695-6e-3 -0.01 0.018 0.038 0.01 0.025l0.018 0.04 0.033 0.079 0.067 0.157 0.138 0.311c0.081 0.209 0.132 0.423 0.202 0.631 0.46 1.685 0.143 3.408-0.491 4.949-0.657 1.543-1.587 2.894-2.519 4.049-1.892 2.315-3.783 3.852-5.018 4.917-0.039 0.037-0.07 0.072-0.107 0.109l-0.087-0.096-3.25 2.928c-0.25-0.254-0.529-0.493-0.857-0.704-0.036-0.427-0.082-0.95-0.16-1.489-0.098-0.637-0.248-1.387-0.39-2.171-0.142-0.783-0.24-2.511-0.228-3.409 7e-3 -0.897 0.086-1.851 0.209-2.83 0.119-0.979 0.31-2.856 0.446-3.884 0.149-1.028 0.226-2.071 0.233-3.115 0.033-2.089-0.305-3.306-0.573-5.264-2e-3 -0.014-3e-3 -0.026-5e-3 -0.04 0.886-0.085 1.765-0.137 2.619-0.114zm-22.067 35.407c-0.248-0.342-0.43-0.698-0.624-1.051-0.2-0.33-0.382-0.733-0.559-1.147l-0.252-0.568-0.222-0.603c-0.154-0.4-0.293-0.804-0.417-1.21-1.048-3.235-1.449-6.625-0.987-9.853 0.417-3.231 1.641-6.264 3.357-8.892 1.714-2.638 3.905-4.882 6.272-6.757l0.883-0.676c0.308-0.217 0.655-0.478 0.928-0.657 0.598-0.404 1.213-0.78 1.848-1.116 1.263-0.683 2.585-1.226 3.917-1.659 0.388-0.126 0.778-0.222 1.168-0.33-0.243 1.55-0.492 2.712-0.462 4.521 7e-3 1.044 0.083 2.088 0.233 3.116 0.137 1.028 0.33 2.903 0.449 3.882 0.123 0.979 0.205 1.926 0.21 2.823 0.012 0.897-0.079 2.61-0.22 3.393-0.142 0.784-0.282 1.501-0.379 2.138-0.067 0.463-0.085 0.953-0.12 1.363-1.665 0.975-2.24 2.658-2.24 4.401 0 0.493 0.188 0.896 0.35 1.231-0.407 0.236-0.493 0.672-0.493 1.176v0.729c0 0.575 0 1.065 1 1.265v7.105c-1 0.198-1 0.688-1 1.266v0.729c0 0.483-0.285 0.666 0.325 0.666h-0.026c-0.72 0-1.146 0.963-1.262 1.804-3.017-0.567-5.925-1.617-8.274-3.433-1.343-1.022-2.497-2.26-3.403-3.656z"/>
</g>
</g>
<g transform="matrix(1.5493 0 0 1.5493 54.327 154.1)" featurekey="nameFeature-0">
<path d="m22.12 17.8-13.28 16.64h13.52v5.56h-21.28v-5.12l13.24-16.72h-13.2v-5.56h21v5.2zm3.938 22.2v-27.4h20.04v5.6h-13.84v5.16h12.8v5.44h-12.8v5.6h13.88v5.6h-20.08zm34.458-21.72h-4.56v7.32h4.36c2.68 0 4.32-1.52 4.32-3.64s-1.36-3.68-4.12-3.68zm-4.56 12.4v9.32h-6.2v-27.4h11.68c5.84 0 9.44 3.76 9.44 9.12 0 4.28-2.84 7.84-7.48 8.76l8.72 9.52h-8.08zm18.858-0.04v-8.52c0-5.6 4.16-9.84 10.32-9.84 6.2 0 10.36 4.24 10.36 9.84v8.52c0 5.6-4.16 9.8-10.36 9.8-6.16 0-10.32-4.2-10.32-9.8zm14.96-0.04v-8.44c0-2.68-1.96-4.52-4.64-4.52s-4.64 1.84-4.64 4.52v8.44c0 2.68 1.96 4.52 4.64 4.52s4.64-1.84 4.64-4.52zm28.978 9.4h-19.44v-5.08l9.8-7.84c2.4-1.84 3.8-3.16 3.8-5.76 0-2.28-1.64-3.72-4.12-3.72-2.84 0-4.36 1.52-5.6 3.48l-4.76-2.88c2.12-3.44 5.4-6 10.44-6 6.12 0 9.84 3.88 9.84 8.8 0 4.44-2.08 7.04-6.28 10.32l-4.72 3.6h11.04v5.08zm11.418 0h-6.08v-21.8h-3.2v-5.6h9.28v27.4z"/>
</g>
<g transform="matrix(.73695 0 0 .73695 83.263 233.46)" featurekey="sloganFeature-0">
<path d="m5.08 4.9c-0.38 0.02-0.76 0.08-1.14 0.2-0.82 0.28-1.56 0.84-2.06 1.56-0.44 0.66-0.62 1.44-0.68 2.22-0.04 0.6 0.02 1.22 0.3 1.76 0.3 0.58 0.82 1.08 1.26 1.56 0.4 0.42 0.8 0.84 1.24 1.22 0.4 0.38 0.86 0.68 1.26 1.08 0.58 0.58 0.8 1.9 0.38 2.62-0.5 0.8-1.68 0.92-2.46 0.66-0.4-0.14-0.76-0.44-1.1-0.68-0.2-0.14-0.44-0.2-0.58 0.04-0.08 0.12-0.12 0.26-0.16 0.38-0.14 0.5-0.32 0.96-0.34 1.5-0.02 0.62 1.16 0.8 1.6 0.9 1.96 0.46 4.32 0.1 5.34-1.84 0.2-0.4 0.34-0.82 0.42-1.26 0.02-0.16 0.04-0.3 0.04-0.46 0.08-1.28-0.44-2.36-1.22-3.32-0.84-1.04-1.9-1.76-2.88-2.66-0.6-0.56-0.82-1.44-0.64-2.24 0.18-0.86 1.16-1.08 1.9-0.86 0.22 0.06 0.4 0.16 0.6 0.28 0.12 0.06 0.24 0.14 0.4 0.14 0.28 0.02 0.32-0.2 0.38-0.42 0.14-0.5 0.38-0.9 0.48-1.38 0.1-0.54-0.34-0.64-0.78-0.78-0.52-0.14-1.02-0.24-1.56-0.22zm13.917 9.18c0 0.9-0.02 2.68-0.04 2.68v2.72c0 0.12-0.02 0.32 0.04 0.44 0.06 0.14 0.24 0.1 0.36 0.08 0.58-0.06 1.16 0.02 1.74 0 0.64-0.02 0.44-1 0.42-1.4-0.08-0.88 0.02-7.58 0.02-9.98 0-1.08-0.04-3.3-0.1-3.4-0.1-0.18-0.36-0.22-0.56-0.24-0.44-0.08-0.66 0.04-1.32 0.04s-0.7 0.2-0.7 0.9v0.6c-0.02 0.48 0.06 3.84 0.06 4.38 0 0.26-0.02 0.28-0.28 0.28-0.66-0.02-1.58 0.06-2.26 0-0.98-0.08-0.76 0-0.82-0.9v-0.12c0-1.28 0.16-4.6 0.1-4.8-0.1-0.3-0.22-0.36-0.48-0.34-0.6 0.04-1.22-0.06-1.82-0.02-0.2 0.02-0.26 0.08-0.32 0.28-0.02 0.1-0.04 0.2-0.04 0.3 0 0.62 0.04 1.46 0.06 2.08l-0.06 11.86c0 0.52 0.46 0.46 1.48 0.46 0.94 0 1.18 0.22 1.18-0.9 0-0.9-0.06-2.04-0.04-2.94 0.02-0.7 0-1.38 0-2.08 0.02-0.26 0.08-0.34 0.32-0.34 0.88-0.02 1.84 0 2.72 0 0.28 0 0.34 0.04 0.34 0.36zm9.917 0.76c-0.06-2.28-0.04-4.7-0.02-6.96 0-0.7-0.04-1.46-0.04-2.16 0-0.76-0.3-0.72-0.7-0.74-0.58-0.02-0.84-0.02-1.42-0.02-0.38-0.02-0.54 0.08-0.54 0.46 0 1.96-0.06 7.5-0.04 8.3s0.1 4.44 0.06 5.24c-0.02 0.28 0 0.56 0.02 0.84 0.02 0.1 0.08 0.2 0.24 0.2 0.66-0.04 1.28-0.04 1.94-0.06 0.24-0.02 0.44-0.08 0.54-0.34 0.02-0.14-0.04-3.8-0.04-4.76zm8.717-9.94c-0.38 0.02-0.76 0.08-1.14 0.2-0.82 0.28-1.56 0.84-2.06 1.56-0.44 0.66-0.62 1.44-0.68 2.22-0.04 0.6 0.02 1.22 0.3 1.76 0.3 0.58 0.82 1.08 1.26 1.56 0.4 0.42 0.8 0.84 1.24 1.22 0.4 0.38 0.86 0.68 1.26 1.08 0.58 0.58 0.8 1.9 0.38 2.62-0.5 0.8-1.68 0.92-2.46 0.66-0.4-0.14-0.76-0.44-1.1-0.68-0.2-0.14-0.44-0.2-0.58 0.04-0.08 0.12-0.12 0.26-0.16 0.38-0.14 0.5-0.32 0.96-0.34 1.5-0.02 0.62 1.16 0.8 1.6 0.9 1.96 0.46 4.32 0.1 5.34-1.84 0.2-0.4 0.34-0.82 0.42-1.26 0.02-0.16 0.04-0.3 0.04-0.46 0.08-1.28-0.44-2.36-1.22-3.32-0.84-1.04-1.9-1.76-2.88-2.66-0.6-0.56-0.82-1.44-0.64-2.24 0.18-0.86 1.16-1.08 1.9-0.86 0.22 0.06 0.4 0.16 0.6 0.28 0.12 0.06 0.24 0.14 0.4 0.14 0.28 0.02 0.32-0.2 0.38-0.42 0.14-0.5 0.38-0.9 0.48-1.38 0.1-0.54-0.34-0.64-0.78-0.78-0.52-0.14-1.02-0.24-1.56-0.22zm13.917 9.18c0 0.9-0.02 2.68-0.04 2.68v2.72c0 0.12-0.02 0.32 0.04 0.44 0.06 0.14 0.24 0.1 0.36 0.08 0.58-0.06 1.16 0.02 1.74 0 0.64-0.02 0.44-1 0.42-1.4-0.08-0.88 0.02-7.58 0.02-9.98 0-1.08-0.04-3.3-0.1-3.4-0.1-0.18-0.36-0.22-0.56-0.24-0.44-0.08-0.66 0.04-1.32 0.04s-0.7 0.2-0.7 0.9v0.6c-0.02 0.48 0.06 3.84 0.06 4.38 0 0.26-0.02 0.28-0.28 0.28-0.66-0.02-1.58 0.06-2.26 0-0.98-0.08-0.76 0-0.82-0.9v-0.12c0-1.28 0.16-4.6 0.1-4.8-0.1-0.3-0.22-0.36-0.48-0.34-0.6 0.04-1.22-0.06-1.82-0.02-0.2 0.02-0.26 0.08-0.32 0.28-0.02 0.1-0.04 0.2-0.04 0.3 0 0.62 0.04 1.46 0.06 2.08l-0.06 11.86c0 0.52 0.46 0.46 1.48 0.46 0.94 0 1.18 0.22 1.18-0.9 0-0.9-0.06-2.04-0.04-2.94 0.02-0.7 0-1.38 0-2.08 0.02-0.26 0.08-0.34 0.32-0.34 0.88-0.02 1.84 0 2.72 0 0.28 0 0.34 0.04 0.34 0.36zm8.997 5.76c0.06 0.02 0.24 0.02 0.42 0.02 0.4 0 0.52-1.44 0.56-1.74 0.02-0.24 0.08-0.26 0.28-0.3 1-0.12 1.5-0.04 2.5-0.02 0.22 0 0.34 0.1 0.4 0.28l0.14 0.46c0.12 0.34 0.22 0.76 0.34 1.1 0.08 0.24 0.1 0.22 0.34 0.22 0.32 0 1.48 0 1.82-0.02 0.46 0 0.14-0.94 0.08-1.1-0.18-0.56-0.22-1.14-0.4-1.7-0.08-0.24-2.36-11.06-2.46-11.66-0.14-0.36-0.02-0.38-0.34-0.38-0.68 0-1.4 0.04-2.1 0-0.28 0-0.26 0.08-0.3 0.38-0.04 0.28-0.76 3.46-1.04 4.78-0.36 1.66-0.68 3.26-1.08 4.9-0.14 0.58-1.1 4.76-0.98 4.78 0.06 0.04 0.16 0.02 0.24 0.02 0.5 0 0.96 0 1.58-0.02zm2.62-4.54h-0.42c-0.56 0-0.58 0-0.44-0.58 0.1-0.44 0.64-2.82 0.76-3.4 0.02-0.04 0.06-0.08 0.08-0.08 0.04 0 0.08 0.04 0.1 0.06 0.08 0.24 0.16 0.84 0.24 1.08 0.18 0.76 0.3 1.4 0.48 2.22 0.18 0.72 0.1 0.72-0.26 0.72-0.18 0-0.36-0.02-0.54-0.02zm16.634-8.76c0 0.96-0.04 11.28 0 12.2 0.02 0.22 0.02 0.44 0.02 0.66 0 0.16 0.1 0.26 0.24 0.32 0.12 0.04 0.28 0.08 0.4 0.08 0.58-0.06 1.2 0 1.8-0.02 1.04 0.08 1.98-0.16 2.88-0.64 0.84-0.48 1.3-1.34 1.62-2.24 0.26-0.76 0.22-1.66 0.08-2.44-0.12-0.7-0.44-1.38-0.86-1.94-0.06-0.08-0.92-0.62-0.88-0.66 0.52-0.74 1.26-1.36 1.36-2.28 0.08-0.8-0.1-1.62-0.38-2.36-0.18-0.48-0.42-0.94-0.8-1.3-0.64-0.6-1.6-0.86-2.44-0.94-0.86-0.08-1.66-0.02-2.52-0.06-0.3 0-0.44 0.12-0.44 0.44 0 0.42-0.08 0.76-0.08 1.18zm2.46 3.64c-0.02-0.22 0-1.98-0.04-2.64-0.02-0.24 0.12-0.36 0.38-0.3 0.2 0.04 0.36 0.06 0.52 0.18 0.5 0.38 0.88 0.84 0.9 1.48 0 0.32 0 0.64-0.12 0.94-0.14 0.36-0.34 0.64-0.7 0.82-0.24 0.12-0.46 0.26-0.7 0.36-0.12 0.04-0.24-0.02-0.26-0.14 0-0.24 0.02-0.7 0.02-0.7zm2 5.3c0 0.1-0.02 0.28-0.02 0.46-0.02 0.6-0.8 1.36-1.7 1.38-0.06 0-0.16-0.06-0.18-0.12-0.04-0.12-0.08-0.26-0.08-0.4-0.02-0.62 0-1.22 0-1.88 0.06-0.42 0.02-0.86 0.02-1.3 0.02-0.34 0.1-0.4 0.42-0.46 0.48-0.06 0.92 0.14 1.14 0.52 0.26 0.46 0.36 0.96 0.4 1.48v0.32zm9.137 4.36c0.06 0.02 0.24 0.02 0.42 0.02 0.4 0 0.52-1.44 0.56-1.74 0.02-0.24 0.08-0.26 0.28-0.3 1-0.12 1.5-0.04 2.5-0.02 0.22 0 0.34 0.1 0.4 0.28l0.14 0.46c0.12 0.34 0.22 0.76 0.34 1.1 0.08 0.24 0.1 0.22 0.34 0.22 0.32 0 1.48 0 1.82-0.02 0.46 0 0.14-0.94 0.08-1.1-0.18-0.56-0.22-1.14-0.4-1.7-0.08-0.24-2.36-11.06-2.46-11.66-0.14-0.36-0.02-0.38-0.34-0.38-0.68 0-1.4 0.04-2.1 0-0.28 0-0.26 0.08-0.3 0.38-0.04 0.28-0.76 3.46-1.04 4.78-0.36 1.66-0.68 3.26-1.08 4.9-0.14 0.58-1.1 4.76-0.98 4.78 0.06 0.04 0.16 0.02 0.24 0.02 0.5 0 0.96 0 1.58-0.02zm2.62-4.54h-0.42c-0.56 0-0.58 0-0.44-0.58 0.1-0.44 0.64-2.82 0.76-3.4 0.02-0.04 0.06-0.08 0.08-0.08 0.04 0 0.08 0.04 0.1 0.06 0.08 0.24 0.16 0.84 0.24 1.08 0.18 0.76 0.3 1.4 0.48 2.22 0.18 0.72 0.1 0.72-0.26 0.72-0.18 0-0.36-0.02-0.54-0.02zm11.497 3.2c0-0.52 0-3.8 0.02-4.06 0.02-0.06 0.06-0.18 0.14-0.18s0.12 0.04 0.14 0.1c0.8 1.56 1.5 3.12 2.22 4.64 0.1 0.22 0.32 0.86 0.38 0.92 0.08 0.12 0.22 0.08 0.34 0.08l2.2 0.02c0.26 0 0.32-0.16 0.26-0.38-0.16-0.6-1.3-2.72-1.56-3.24-0.18-0.4-1.38-2.72-1.42-2.9-0.04-0.08 0.26-0.22 0.3-0.28 0.96-0.86 1.82-1.74 2-3.08 0.2-1.32-0.1-2.76-0.96-3.82-0.66-0.78-1.52-1.24-2.54-1.3-0.62-0.04-1.22 0.02-1.84 0-0.54-0.02-0.92-0.02-1.6-0.02-0.32 0-0.52 0.18-0.54 0.52v0.24c-0.04 1.54 0 3.08 0.02 4.6 0 2.32-0.04 8.44-0.04 9.32 0 0.26 0.04 0.32 0.28 0.32 0.14 0 0.3 0.02 0.44 0.02 0.56 0 0.9-0.02 1.48-0.02 0.44 0 0.28-0.72 0.28-1.5zm0-7.8 0.02-2.02c0.02-0.3-0.08-0.9 0.2-1.12 0.38-0.28 1.16 0 1.5 0.24 1 0.68 0.92 2.36 0.38 3.3-0.26 0.44-0.7 0.7-1.2 0.84-0.3 0.08-0.86 0.18-0.88-0.3 0-0.32-0.02-0.94-0.02-0.94zm17.914-3.74c-0.02 1.24 0.1 10.3 0.08 10.96 0 0.62 0 1.24 0.02 1.86 0 0.1 0.06 0.2 0.16 0.2 1.4 0.06 2.78-0.06 4.18-0.04 0.46 0.02 0.92 0 1.36 0 0.44-0.02 0.48-0.2 0.46-0.56-0.02-0.56-0.02-1.06-0.02-1.6-0.02-0.28-0.18-0.38-0.42-0.38-0.82 0.02-1.64-0.02-2.46 0.02-0.14 0.02-0.28 0.02-0.42 0.02-0.24-0.02-0.3-0.08-0.32-0.34v-0.3c-0.06-1.66 0.06-3.38 0.06-5.04-0.02-1.4 0-2.66-0.02-3.9 0-0.54 0-1.08-0.02-1.6-0.02-0.32 0-0.66-0.08-0.98-0.04-0.12-0.1-0.28-0.24-0.28h-1.88c-0.32 0-0.42 0.22-0.44 0.54v1.42zm21.397 1.72c0.42 1.24 0.52 2.58 0.52 3.9 0 1.1-0.2 2.16-0.48 3.22-0.36 1.26-0.96 2.4-2.04 3.14-0.8 0.58-1.64 0.96-2.62 1.06-0.14 0-0.26 0.02-0.4 0.02-0.12 0-0.24-0.02-0.38-0.02-0.98-0.1-1.82-0.48-2.64-1.06-1.06-0.74-1.68-1.88-2.02-3.14-0.3-1.06-0.48-2.12-0.48-3.22 0-1.32 0.1-2.66 0.52-3.9 0.74-2.14 2.78-3.66 5-3.7 2.22 0.04 4.26 1.56 5.02 3.7zm-1.94 5.36c0.2-1.22 0.12-2.46-0.12-3.68-0.24-1.1-0.72-2.18-1.64-2.84-0.16-0.12-0.34-0.22-0.52-0.28-0.26-0.12-0.54-0.16-0.8-0.16s-0.52 0.04-0.78 0.16c-0.2 0.06-0.36 0.16-0.52 0.28-0.94 0.66-1.42 1.74-1.64 2.84-0.24 1.22-0.32 2.46-0.12 3.68 0.2 1.1 0.6 2.58 1.64 3.14 0.44 0.24 0.92 0.4 1.42 0.42 0.5-0.02 1-0.18 1.44-0.42 1.04-0.56 1.44-2.04 1.64-3.14zm7.057-5.76c0 2.02 0.02 4.06 0.06 6.06 0.02 1.22 0 2.6 0.58 3.72 0.74 1.44 2.38 2.08 3.96 1.98 1.08-0.08 2.08-0.36 2.86-1.16 1.32-1.42 1.06-3.64 1.08-5.46 0.04-2.62 0.1-5.06 0.1-7.7 0-0.44-0.14-0.68-0.58-0.7-0.54-0.02-1.08 0-1.62 0.04-0.22 0-0.4 0.2-0.4 0.44 0.02 1.92 0.06 3.86 0.04 5.8-0.02 1.66 0.2 3.5-0.42 5.08-0.24 0.58-0.78 1.02-1.42 1.02-1.6-0.04-1.54-1.94-1.6-3.06-0.12-2.44 0.06-4.94 0.12-7.38 0-0.46 0-0.92 0.02-1.38 0.02-0.24 0.06-0.54-0.26-0.56h-0.36c-0.5 0.04-1-0.02-1.5 0-0.48 0.04-0.64 0.18-0.64 0.66 0 0.86-0.02 1.74-0.02 2.6zm21.757-2.82c0.06 0.28 0.02 13.6 0.02 13.94 0 0.6-0.22 0.58-0.62 0.58-0.6 0-1.44 0.1-1.62-0.1-0.16-0.14-3.12-7.28-3.54-8.18-0.04-0.08-0.14-0.28-0.22-0.24-0.1 0.04-0.06 0.18-0.06 0.26-0.02 0.7 0.1 6.74 0.1 7.7 0 0.48-0.02 0.56-0.42 0.56h-1c-0.26 0-0.58-0.02-0.84 0.02-0.2 0-0.3-0.06-0.32-0.26v-1.58c0.04-1.68 0-11.64 0-12.38 0-0.64 0.18-0.76 0.82-0.76 0.44-0.02 0.88-0.02 1.32-0.02 0.14 0 0.22 0.02 0.3 0.2 0.54 1.26 2.84 7.04 3.2 7.74 0.06 0.14 0.28 0.7 0.4 0.76h0.02c0.08-0.08 0.06-0.48 0.06-0.6 0-0.3-0.16-7.32-0.16-7.46 0-0.2-0.06-0.38 0.04-0.52 0.06-0.08 0.32-0.1 0.42-0.12 0.56-0.04 1.22 0.02 1.78 0 0.28 0 0.26 0.2 0.32 0.46zm13.577 11.18c0.02 0.96 0 1.94-0.06 2.9 0 0.08-0.06 0.16-0.12 0.2-0.08 0.06-0.18 0.1-0.28 0.1-1.24 0.2-2.74 0.3-3.94-0.1-2.7-0.92-4.54-3.94-4.54-7.4 0-3.74 2.68-7.38 6.58-7.52 0.52-0.02 2.3-0.1 2.24 0.78-0.04 0.64 0.02 1.16 0 1.82 0 0.12-0.08 0.2-0.2 0.18-1.14-0.14-2.44-0.5-3.54 0.02-0.92 0.44-1.56 1.38-1.92 2.3-0.64 1.52-0.5 3.28-0.06 4.84 0.34 1.24 1.08 2.7 2.56 2.74 0.08 0.02 0.84 0.06 0.84-0.02l-0.06-2.56c-0.02-0.12-0.02-0.24-0.04-0.36s-0.1-0.16-0.22-0.18c-0.32 0-0.32-0.02-0.64-0.02-0.74 0-0.58-0.5-0.6-0.66-0.02-0.3 0-0.58-0.02-0.88-0.02-0.28 0.06-0.5 0.34-0.54h0.24c1.04-0.06 2.1 0.02 3.2 0.02 0.16 0 0.24 0.2 0.24 0.38 0.02 0.2 0.02 0.34 0.02 0.54 0.06 0.98-0.06 1.98-0.04 2.96 0.02 0.16 0.02 0.3 0.02 0.46zm4.657-0.74h-0.02c0 0.5-0.02 1.02 0 1.54 0.02 0.64 0.06 1.28 0.1 1.92 0 0.22 0.06 0.28 0.26 0.32 0.42 0.1 0.82 0.12 1.24 0.12 1.08-0.04 2.16 0.04 3.24 0 0.44-0.02 0.64 0.02 1.08-0.06 0.4-0.08 0.54-0.3 0.54-0.9-0.04-0.38-0.02-0.54-0.02-1 0-0.66-0.46-0.88-0.86-0.86-0.28 0.02-1.62-0.02-2.16-0.02-0.9 0.02-0.76 0.14-0.76-0.8 0-0.76 0.02-1.74 0.02-2.52 0-0.42 0.04-0.56 0.44-0.56h2.5c0.4 0.06 0.68-0.22 0.68-0.64s0.04-0.44 0.04-0.86l-0.06-0.6c-0.04-0.34-0.16-0.46-0.5-0.46-0.22 0-0.44 0.02-0.66 0.04-0.86 0.06-1.26-0.06-2.1 0-0.28 0-0.32-0.04-0.34-0.3-0.08-0.78 0-1.64 0.08-2.42 0.02-0.32 0.1-0.38 0.4-0.4l2.82-0.02c0.38-0.04 0.5-0.02 0.48-0.4-0.04-0.58 0.02-1.18-0.04-1.76-0.04-0.32-0.14-0.38-0.5-0.38-0.6 0.02-0.74 0.02-1.34 0.06-0.6 0.02-3 0.02-3.58 0.02-0.84 0-0.9-0.06-0.92 0.96-0.04 0.8-0.02 1.62-0.02 2.44 0 1.4-0.08 6.42-0.04 7.54z"/>
</g>
</svg>
